<svg width="158" height="43" viewBox="0 0 158 43" fill="none" xmlns="http://www.w3.org/2000/svg">
<path d="M56.5848 21.8346V32.0524H51.928V22.5698C51.928 20.5039 50.7176 19.5453 49.23 19.5453C47.5206 19.5453 46.338 20.6062 46.338 22.9699V32.0524H41.6812V8.75986H46.338V16.9769C47.1788 15.7486 48.731 14.9483 50.7822 14.9483C53.9145 14.9483 56.5848 17.3399 56.5848 21.8346Z" fill="#E6E6E6"/>
<path d="M67.682 28.06C68.9571 28.06 70.0381 27.5295 70.6664 26.7944L74.39 29.0929C72.8655 31.3542 70.574 32.5175 67.6173 32.5175C62.3045 32.5175 59.0151 28.6928 59.0151 23.7327C59.0151 18.7727 62.3691 14.948 67.2754 14.948C71.8121 14.948 75.1661 18.7076 75.1661 23.7327C75.1661 24.4307 75.1015 25.1007 74.9813 25.7335H63.9491C64.5405 27.4644 65.9726 28.06 67.682 28.06ZM70.5371 22.0018C70.0381 20.0755 68.6429 19.3683 67.2477 19.3683C65.4737 19.3683 64.3002 20.2989 63.866 22.0018H70.5371Z" fill="#E6E6E6"/>
<path d="M77.8081 7.75462H82.4649V32.0522H77.8081V7.75462Z" fill="#E6E6E6"/>
<path d="M102.589 23.7327C102.589 28.6927 99.2354 32.5174 95.1699 32.5174C93.091 32.5174 91.5665 31.7544 90.5409 30.4888V38.7058H85.884V15.4133H90.5409V16.9767C91.5665 15.7111 93.091 14.948 95.1699 14.948C99.2354 14.948 102.589 18.7727 102.589 23.7327ZM97.9326 23.7327C97.9326 21.2387 96.3804 19.6754 94.2367 19.6754C92.0931 19.6754 90.5409 21.2387 90.5409 23.7327C90.5409 26.2267 92.0931 27.7901 94.2367 27.7901C96.3804 27.7901 97.9326 26.2267 97.9326 23.7327Z" fill="#E6E6E6"/>
<path d="M104.613 13.4498C107.505 12.1191 110.231 11.4211 112.661 11.4211C116.671 11.4211 119.618 13.7476 119.618 17.2094C119.618 19.4428 118.472 21.0061 116.976 21.6669C119.092 22.5974 120.117 23.863 120.117 25.9941C120.117 30.0235 117.17 32.35 112.476 32.35C109.741 32.35 106.664 31.7172 103.938 30.1166L105.491 25.9569C108.281 27.2225 110.646 27.5575 112.199 27.5575C113.723 27.5575 114.62 27.027 114.62 25.8638C114.62 24.7285 113.409 24.0957 110.896 24.0957H108.318V19.6103H110.896C113.354 19.6103 114.342 19.2753 114.342 18.112C114.342 16.8836 113.409 16.2136 111.885 16.2136C110.36 16.2136 108.004 16.7813 105.768 17.5071L104.613 13.4498Z" fill="#2169F7"/>
<path d="M136.721 17.107C134.42 16.5393 133.367 16.409 132.156 16.409C129.578 16.409 128.211 17.8421 127.804 20.606C129.264 19.4427 130.854 18.9774 132.738 18.9774C136.314 18.9774 138.707 21.4714 138.707 25.1379C138.707 29.5024 135.908 32.3593 130.909 32.3593C125.162 32.3593 122.057 28.6648 122.057 22.9417C122.057 15.6832 126.067 11.4211 131.87 11.4211C134.014 11.4211 136.092 11.9515 138.051 12.817L136.721 17.107ZM133.339 24.8308C133.339 23.528 132.341 22.6998 130.854 22.6998C129.8 22.6998 128.553 23.2302 127.777 24.198C128.119 26.2919 129.209 27.4551 130.918 27.4551C132.341 27.4644 133.339 26.4594 133.339 24.8308Z" fill="#2169F7"/>
<path d="M158 21.9739C158 28.6276 155.173 32.3593 149.148 32.3593C143.152 32.3593 140.297 28.6276 140.297 21.9739C140.297 15.2179 143.152 11.4211 149.148 11.4211C155.182 11.4211 158 15.2179 158 21.9739ZM152.133 21.9739C152.133 18.6145 151.541 16.986 149.148 16.986C146.783 16.986 146.164 18.6145 146.164 21.9739C146.164 25.2031 146.783 26.8037 149.148 26.8037C151.541 26.7944 152.133 25.1938 152.133 21.9739Z" fill="#2169F7"/>
<path d="M17.9571 0.00165392C17.8715 -0.0197496 17.7752 0.172882 17.7538 0.215689C16.9405 1.73534 5.94979 6.16586 2.79277 9.68674C2.11856 10.4573 1.56207 11.3348 1.134 12.2659C0.802243 13.0578 0.66312 13.6892 0.513296 14.4169C0.459787 14.6952 0.416979 14.9199 0.36347 15.2195C0.192242 16.2683 0.10663 16.8034 0.0638226 17.4134C0.0531209 17.4883 0.0424188 17.7238 0.031717 18.1411C-0.0217917 20.1102 -0.0431956 21.0948 0.267155 21.2981C0.620313 21.5229 1.55136 20.945 3.41347 19.7999C3.49908 19.7464 3.77733 19.5752 4.16259 19.3504C4.65487 19.0722 4.85821 18.9652 6.31364 18.0876C7.20189 17.5418 8.19715 16.9532 9.42785 16.1506C10.8298 15.2516 11.5254 14.7915 12.328 14.2136C14.5005 12.6297 15.6028 11.8057 16.4803 10.3395C17.0368 9.40849 17.2722 8.58446 17.5184 7.76042C18.0214 6.02674 18.0856 4.67832 18.1391 3.03025C18.1819 2.49516 18.2675 0.0444609 17.9571 0.00165392Z" fill="url(#paint0_linear)"/>
<path d="M16.3513 42.1987C16.362 40.2403 16.3941 35.0607 16.3941 35.0071V34.9643C16.3941 34.9215 16.3834 34.9001 16.362 34.6754C16.3192 34.2794 16.2871 34.0012 16.2871 33.9477C16.2336 33.4447 15.9982 32.8989 15.8698 32.6207C15.6343 32.0856 15.324 31.5933 14.9494 31.1331C14.3073 30.2984 13.708 29.774 12.9482 29.1426C12.4452 28.7145 11.9422 28.34 10.9469 27.5908C10.2727 27.0879 9.85537 26.7882 9.74835 26.7026C9.12765 26.2638 8.71028 25.9749 8.14309 25.6003C6.24888 24.3161 6.32379 24.3482 5.54257 23.8345C4.18344 22.9677 3.50923 22.5182 3.13467 22.5075C1.97888 22.4861 0.769584 23.5884 0.330813 24.7228C0.148883 25.1829 0.127478 25.6217 0.0739695 26.51C0.0311625 27.2377 0.0953737 27.4838 0.0846719 29.0784C0.0846719 29.8703 0.0739702 29.8489 0.0846719 29.9666C0.180988 31.1545 1.57222 32.0107 1.93608 32.2354C3.48783 33.2414 8.89221 37.0191 16.3513 42.1987Z" fill="url(#paint1_linear)"/>
<path d="M18.3319 42.1987C18.3212 40.2403 18.2891 35.0714 18.2891 35.0071V34.9643C18.2891 34.9215 18.2998 34.9001 18.3212 34.6754C18.364 34.2794 18.3961 34.0012 18.3961 33.9477C18.4496 33.4447 18.685 32.9096 18.8134 32.6207C19.0489 32.0856 19.3592 31.5933 19.7231 31.1331C20.3652 30.2984 20.9645 29.774 21.7243 29.1426C22.2273 28.7145 22.7303 28.34 23.7255 27.5908C24.3998 27.0879 24.8171 26.7882 24.9241 26.7026C25.5448 26.2638 25.9622 25.9749 26.5294 25.6003C28.4236 24.3161 28.338 24.3482 29.1406 23.8345C30.489 22.957 31.174 22.5075 31.5485 22.5075C32.715 22.4861 33.9136 23.5777 34.3524 24.7228C34.5343 25.183 34.5557 25.6217 34.6092 26.51C34.652 27.2377 34.5878 27.4838 34.5985 29.0784C34.5985 29.8703 34.6092 29.8382 34.5985 29.9666C34.5022 31.1652 33.1217 32.0107 32.7471 32.2461C31.1847 33.2414 25.791 37.0191 18.3319 42.1987Z" fill="url(#paint2_linear)"/>
<path d="M22.7196 5.1813C23.6828 5.68428 24.4747 6.04814 24.9563 6.27288C25.4807 6.51902 26.2512 6.88288 27.1822 7.36446C27.1822 7.36446 29.6972 8.60586 31.1847 9.59042C31.3666 9.70814 31.5379 9.83656 31.5379 9.83656C31.6449 9.91147 31.7519 9.98638 31.8482 10.072C31.9338 10.1362 32.2763 10.3716 33.3036 11.0673C33.6675 11.4739 33.8387 11.7308 33.9243 11.8806C33.9243 11.8806 34.1705 12.3515 34.2561 12.512C34.2882 12.5655 34.3096 12.6297 34.3417 12.6939C34.3417 12.7046 34.3417 12.7046 34.3524 12.7153C34.6521 13.7106 34.5557 18.0341 34.5557 18.0341C34.5129 19.7999 34.6306 21.1804 34.2347 21.266C34.224 21.266 34.2133 21.2767 34.2026 21.2767C34.0742 21.2874 33.7852 21.1804 31.9338 20.1851C31.1098 19.7464 30.7352 19.5323 30.7352 19.5323C29.4831 18.826 28.6805 18.3658 27.8244 17.8522C27.7066 17.7772 27.2786 17.5204 26.7007 17.178C25.5342 16.4716 24.7851 16.0115 24.1644 15.5834C22.7731 14.6309 22.0775 14.1494 21.6709 13.5394C20.6756 12.0411 20.6435 10.0399 20.6328 9.03393V8.62726C20.6221 7.17182 20.5472 6.51902 20.5044 5.2027C20.4937 4.98867 20.483 3.972 20.7291 3.89709C20.911 3.84358 21.093 4.14323 21.6173 4.5499C21.7351 4.62481 21.9277 4.76393 22.7196 5.1813Z" fill="url(#paint3_linear)"/>
<defs>
<linearGradient id="paint0_linear" x1="0.00262959" y1="10.673" x2="18.1852" y2="10.673" gradientUnits="userSpaceOnUse">
<stop stop-color="white"/>
<stop offset="0.24" stop-color="#F3F3F3"/>
<stop offset="0.66" stop-color="#D2D2D2"/>
<stop offset="1" stop-color="#B4B4B4"/>
</linearGradient>
<linearGradient id="paint1_linear" x1="0.0493128" y1="32.3491" x2="16.3872" y2="32.3491" gradientUnits="userSpaceOnUse">
<stop stop-color="white"/>
<stop offset="0.24" stop-color="#F3F3F3"/>
<stop offset="0.66" stop-color="#D2D2D2"/>
<stop offset="1" stop-color="#B4B4B4"/>
</linearGradient>
<linearGradient id="paint2_linear" x1="18.2933" y1="32.3572" x2="34.623" y2="32.3572" gradientUnits="userSpaceOnUse">
<stop stop-color="white"/>
<stop offset="0.24" stop-color="#F3F3F3"/>
<stop offset="0.66" stop-color="#D2D2D2"/>
<stop offset="1" stop-color="#B4B4B4"/>
</linearGradient>
<linearGradient id="paint3_linear" x1="20.4895" y1="12.5622" x2="34.5579" y2="12.5622" gradientUnits="userSpaceOnUse">
<stop stop-color="white"/>
<stop offset="0.24" stop-color="#F3F3F3"/>
<stop offset="0.66" stop-color="#D2D2D2"/>
<stop offset="1" stop-color="#B4B4B4"/>
</linearGradient>
</defs>
</svg>
